<?xml version="1.0" encoding="UTF-8"?>
<svg width="3309px" height="1450px" viewBox="0 0 3309 1450" version="1.1" xmlns="http://www.w3.org/2000/svg" xmlns:xlink="http://www.w3.org/1999/xlink">
    <!-- Generator: Sketch 44.1 (41455) - http://www.bohemiancoding.com/sketch -->
    <title>Group</title>
    <desc>Created with Sketch.</desc>
    <defs></defs>
    <g id="Page-1" stroke="none" stroke-width="1" fill="none" fill-rule="evenodd">
        <g id="Group" fill="#C51F16">
            <polygon id="v" transform="translate(796.053573, 725.742856) scale(-1, 1) translate(-796.053573, -725.742856) " points="1156.03931 3 790.436774 929.930349 434.025361 3 0 3 555.552462 1448.48571 1021.23614 1448.48571 1592.10715 3"></polygon>
            <path d="M1262.73978,859.161478 L948.199052,547.826093 L933.901746,587.248431 L1247.42124,898.583815 L1262.73978,859.161478 Z M1564.00445,4 L1661.02188,100.028771 L1626.29985,11.0758042 L1619.1512,4 L1564.00445,4 Z M1324.01395,699.450469 L1009.47322,388.115085 L994.154679,427.537422 L1308.69541,738.872806 L1324.01395,699.450469 Z M1232.1027,4 L1874.46023,639.811548 L1839.7382,551.86941 L1286.22822,4 L1232.1027,4 Z M1354.65104,620.605794 L1040.11031,309.270409 L1024.79176,348.692747 L1339.33249,660.028131 L1354.65104,620.605794 Z M1342.3962,4 L1802.9737,459.883956 L1768.25167,370.930989 L1397.54296,4 L1342.3962,4 Z M1293.37687,779.305973 L978.836137,467.970589 L963.517594,507.392927 L1278.05833,818.728311 L1293.37687,779.305973 Z M1385.28812,540.750289 L1070.74739,229.414905 L1055.42885,268.837242 L1369.96958,580.172627 L1385.28812,540.750289 Z M1453.71094,4 L1732.50841,279.956363 L1696.76514,191.003396 L1507.83646,4 L1453.71094,4 Z M1028.87671,1449.48571 L1036.02536,1449.48571 L1049.30143,1415.11752 L734.760699,1104.79297 L719.442156,1143.20447 L1028.87671,1449.48571 Z M1805.01618,1449.48571 L1859.14169,1449.48571 L1693.70144,1284.72056 L1728.42347,1373.67353 L1805.01618,1449.48571 Z M1147.3401,30.2815584 L1945.94676,820.749969 L1910.2035,731.797002 L1174.91348,4 L1157.55246,4 L1147.3401,30.2815584 Z M2255.47585,1176.56184 L1132.02156,70.7147252 L1116.70302,110.137063 L2244.46913,1215.98417 L2255.47585,1176.56184 Z M917.561968,1449.48571 L972.70872,1449.48571 L704.123614,1183.63764 L688.805072,1223.05998 L917.561968,1449.48571 Z M807.268465,1449.48571 L861.39398,1449.48571 L673.48653,1263.49315 L658.167988,1302.91548 L807.268465,1449.48571 Z M1079.93851,1336.27285 L765.397783,1024.93746 L750.079241,1064.3598 L1064.61997,1375.69518 L1079.93851,1336.27285 Z M695.953725,1449.48571 L751.100477,1449.48571 L642.849446,1343.34865 L627.530904,1381.76016 L695.953725,1449.48571 Z M1110.5756,1256.41734 L796.034867,945.081957 L780.716325,984.504295 L1095.25706,1295.83968 L1110.5756,1256.41734 Z M602,1449.48571 L639.785737,1449.48571 L612.212361,1422.19333 L602,1449.48571 Z M1170.82853,1097.71716 L857.309036,786.381777 L841.990494,825.804115 L1156.53123,1137.1395 L1170.82853,1097.71716 Z M2026.62442,1449.48571 L2081.77117,1449.48571 L1550.72838,924.865374 L1586.47164,1013.81834 L2026.62442,1449.48571 Z M2145.97746,1444.30309 L2161.53583,1415.11752 L1480.26308,744.937781 L1514.98511,832.879919 L2145.97746,1444.30309 Z M1916.33092,1449.48571 L1970.45643,1449.48571 L1622.21491,1104.79297 L1656.93694,1193.74593 L1916.33092,1449.48571 Z M1141.21268,1176.56184 L826.671951,866.237282 L811.353409,904.64879 L1125.89414,1215.98417 L1141.21268,1176.56184 Z M2163.75725,1356.48943 L2123.64185,1271.57978 L1408.77655,563.99936 L1443.49858,652.952327 L2163.75725,1356.48943 Z M2052.15532,1091.65219 L1101.38447,149.5594 L1086.06593,188.981738 L2087.89859,1180.60515 L2052.15532,1091.65219 Z M1201.46562,1017.86166 L886.924884,706.526273 L872.627578,745.948611 L1187.16831,1057.28399 L1201.46562,1017.86166 Z M1232.1027,938.006153 L917.561968,626.670769 L903.264662,666.093106 L1217.80539,977.428491 L1232.1027,938.006153 Z" id="v-copy-2"></path>
            <path d="M2373.42124,854.161478 L2058.88051,542.826093 L2044.5832,582.248431 L2358.1027,893.583815 L2373.42124,854.161478 Z M2676.38796,0.673886113 L2773.4054,96.7026572 L2738.68337,7.7496903 L2731.53472,0.673886113 L2676.38796,0.673886113 Z M2439.80159,697.02287 L2125.26086,385.687485 L2109.94232,425.109823 L2424.48305,736.445207 L2439.80159,697.02287 Z M2349.5924,0 L2991.94993,635.811548 L2957.2279,547.86941 L2403.71791,0 L2349.5924,0 Z M2468.85009,617.953566 L2154.30935,306.618182 L2138.99081,346.040519 L2453.53154,657.375903 L2468.85009,617.953566 Z M2458.52425,0.224628704 L2919.10175,456.108584 L2884.37973,367.155617 L2513.67101,0.224628704 L2458.52425,0.224628704 Z M2410.7531,776.092174 L2096.21236,464.756789 L2080.89382,504.179127 L2395.43455,815.514511 L2410.7531,776.092174 Z M2497.89858,538.884262 L2183.35785,227.548878 L2168.03931,266.971215 L2482.58004,578.306599 L2497.89858,538.884262 Z M2567.45611,0.449257409 L2846.25358,276.405621 L2810.51031,187.452654 L2621.58162,0.449257409 L2567.45611,0.449257409 Z M2143.41617,1448.06894 L2150.56482,1448.06894 L2163.84089,1413.70075 L1838.11994,1107.95254 L1833.98162,1141.7877 L2143.41617,1448.06894 Z M2918.42093,1448.06894 L2972.54645,1448.06894 L2807.10619,1283.30379 L2841.82822,1372.25676 L2918.42093,1448.06894 Z M2262.44691,32.2342191 L3061.05358,822.70263 L3025.31031,733.749663 L2290.02029,5.95266067 L2272.65928,5.95266067 L2262.44691,32.2342191 Z M3098.38543,913.452626 L2248.71696,72.4427572 L2233.39842,111.865095 L3133.10746,1002.40559 L3098.38543,913.452626 Z M2192.88939,1336.76542 L1878.34865,1025.43004 L1863.03011,1064.85237 L2177.57084,1376.18776 L2192.88939,1336.76542 Z M2221.93788,1257.69612 L1907.39715,946.360732 L1892.07861,985.783069 L2206.61934,1297.11845 L2221.93788,1257.69612 Z M1743.68051,1448.29239 L1762.57338,1448.29239 L1735,1421 L1743.68051,1448.29239 Z M2286.27576,1099.55751 L1972.75626,788.222124 L1957.43772,827.644461 L2271.97845,1138.97985 L2286.27576,1099.55751 Z M3137.75976,1448.06894 L3192.90651,1448.06894 L2661.86372,923.448604 L2697.60698,1012.40157 L3137.75976,1448.06894 Z M3254.18068,1448.06894 L3308.3062,1448.06894 L2596.5046,743.521012 L2631.22663,831.463149 L3254.18068,1448.06894 Z M3028.60096,1448.06894 L3082.72648,1448.06894 L2734.48495,1103.3762 L2769.20698,1192.32916 L3028.60096,1448.06894 Z M2258.2485,1178.62681 L1943.70777,868.302257 L1928.38923,906.713765 L2242.92996,1218.04915 L2258.2485,1178.62681 Z M3273.4707,1361.81152 L3238.74867,1272.85855 L2523.88337,565.278135 L2558.6054,654.231102 L3273.4707,1361.81152 Z M3163.17719,1093.15559 L2212.40634,151.062804 L2197.0878,190.485141 L3198.92046,1182.10856 L3163.17719,1093.15559 Z M2315.32425,1013.30009 L2000.78352,701.964701 L1986.48621,741.387039 L2301.02695,1052.72242 L2315.32425,1013.30009 Z M2344.37275,934.230782 L2029.83202,622.895397 L2015.53471,662.317735 L2330.07544,973.653119 L2344.37275,934.230782 Z" id="v-copy-3"></path>
        </g>
    </g>
</svg>